<?xml version="1.0" encoding="UTF-8" standalone="no"?>
<svg
   version="1.1"
   viewBox="-10 0 642 1000"
   id="svg1"
   sodipodi:docname="1DF2C.svg"
   inkscape:version="1.4.3 (0d15f75, 2025-12-25)"
   xmlns:inkscape="http://www.inkscape.org/namespaces/inkscape"
   xmlns:sodipodi="http://sodipodi.sourceforge.net/DTD/sodipodi-0.dtd"
   xmlns="http://www.w3.org/2000/svg"
   xmlns:svg="http://www.w3.org/2000/svg">
  <defs
     id="defs1" />
  <sodipodi:namedview
     id="namedview1"
     pagecolor="#ffffff"
     bordercolor="#666666"
     borderopacity="1.0"
     inkscape:showpageshadow="2"
     inkscape:pageopacity="0.0"
     inkscape:pagecheckerboard="0"
     inkscape:deskcolor="#d1d1d1"
     inkscape:zoom="0.755"
     inkscape:cx="259.60265"
     inkscape:cy="1186.0927"
     inkscape:window-width="1680"
     inkscape:window-height="998"
     inkscape:window-x="-8"
     inkscape:window-y="-8"
     inkscape:window-maximized="1"
     inkscape:current-layer="svg1"
     showguides="true">
    <sodipodi:guide
       position="463,341.72185"
       orientation="1,0"
       id="guide1"
       inkscape:locked="false" />
    <sodipodi:guide
       position="314,-55"
       orientation="0,1"
       id="guide2"
       inkscape:locked="false"
       inkscape:label=""
       inkscape:color="rgb(0,134,229)" />
    <sodipodi:guide
       position="0,200"
       orientation="0,1"
       id="guide3"
       inkscape:locked="false"
       inkscape:label=""
       inkscape:color="rgb(0,134,229)" />
    <sodipodi:guide
       position="187.05176,59.799609"
       orientation="0,-1"
       id="guide6"
       inkscape:locked="false" />
  </sodipodi:namedview>
  <path
     fill="currentColor"
     d="m 359,794 c -19,8 -64,16 -100,16 C 145,810 95,770 95,655 V 321 H 19 v -40 c 24,0 56,-9 78,-32 23,-24 36,-57 46,-108 h 46 V 264 H 359 V 223 C 361,88 407,35 514,35 c 73,0 108,38 108,79 0,33 -24,57 -77,57 0,-40 -8,-90 -42,-90 -39,0 -50,28 -50,112 v 677.49673 z m -78,-37 c 29,0 52,-3 78,-7 V 321 H 189 v 337 c 0,68 36,99 92,99 z"
     id="path1"
     sodipodi:nodetypes="csscccccccccsscssccscccss" />
  <path
     style="fill:#146640;fill-opacity:1"
     d="m 321,830.54779 c -100,0 -144,55.54997 -144,109.6526 h 54 c 0,-29.78841 23,-59.6526 87,-59.6526 76.28394,0 156.60494,46.01413 193,150.00001 l 50,-21 C 500.86184,842.20681 363.2552,830.54779 321,830.54779 Z"
     id="path3"
     sodipodi:nodetypes="sccsccs" />
  <path
     style="fill:#0b3567;fill-opacity:1"
     d="m 359,888 c 0,85 -23,110 -64,110 -41,0 -64,-24.34232 -64,-57.79961 H 177 C 177,1016.196 238,1055 304,1055 c 80,0 137,-35 147,-147 1.15894,-16.55629 2,-37.50327 2,-37.50327 l -94,-96.21308 z"
     id="path1-2"
     sodipodi:nodetypes="csccscccc" />
</svg>
