<?xml version="1.0" encoding="UTF-8" standalone="no"?>
<svg
   version="1.1"
   viewBox="-10 0 495 1000"
   id="svg1"
   sodipodi:docname="1DF3A.svg"
   inkscape:version="1.4.3 (0d15f75, 2025-12-25)"
   xmlns:inkscape="http://www.inkscape.org/namespaces/inkscape"
   xmlns:sodipodi="http://sodipodi.sourceforge.net/DTD/sodipodi-0.dtd"
   xmlns="http://www.w3.org/2000/svg"
   xmlns:svg="http://www.w3.org/2000/svg">
  <defs
     id="defs1" />
  <sodipodi:namedview
     id="namedview1"
     pagecolor="#ffffff"
     bordercolor="#666666"
     borderopacity="1.0"
     inkscape:showpageshadow="2"
     inkscape:pageopacity="0.0"
     inkscape:pagecheckerboard="0"
     inkscape:deskcolor="#d1d1d1"
     inkscape:zoom="0.755"
     inkscape:cx="543.70861"
     inkscape:cy="808.60927"
     inkscape:window-width="1680"
     inkscape:window-height="998"
     inkscape:window-x="-8"
     inkscape:window-y="-8"
     inkscape:window-maximized="1"
     inkscape:current-layer="svg1" />
  <path
     fill="currentColor"
     d="M407 800h-284v-42h13c45 0 82 -9 82 -72v-203c-113 -60 -172 -130 -172 -248c0 -103 67 -195 210 -195c129 0 197 59 197 117c0 43 -31 65 -79 65c0 -78 -33 -132 -118 -132c-83 0 -116 66 -116 140c0 101 50 150 172 206v250c0 63 37 72 82 72h13v42z"
     id="path1" />
  <path
     d="m 407,758 v 91 c 0,93 -29,148 -104,148 -47,0 -76,-19 -76,-55 0,-16 6,-28 15,-37 16,11 30,16 52,16 33,0 57,-17 57,-72 v -49 z"
     style="fill:#05244c;fill-opacity:1"
     id="path1-7" />
</svg>
