<?xml version="1.0" encoding="UTF-8" standalone="no"?>
<svg
   version="1.1"
   viewBox="-10 0 707 1000"
   id="svg1"
   sodipodi:docname="1DF33.svg"
   inkscape:version="1.4.3 (0d15f75, 2025-12-25)"
   xmlns:inkscape="http://www.inkscape.org/namespaces/inkscape"
   xmlns:sodipodi="http://sodipodi.sourceforge.net/DTD/sodipodi-0.dtd"
   xmlns="http://www.w3.org/2000/svg"
   xmlns:svg="http://www.w3.org/2000/svg">
  <defs
     id="defs1" />
  <sodipodi:namedview
     id="namedview1"
     pagecolor="#ffffff"
     bordercolor="#666666"
     borderopacity="1.0"
     inkscape:showpageshadow="2"
     inkscape:pageopacity="0.0"
     inkscape:pagecheckerboard="0"
     inkscape:deskcolor="#d1d1d1"
     inkscape:zoom="0.755"
     inkscape:cx="509.27152"
     inkscape:cy="847.01987"
     inkscape:window-width="1680"
     inkscape:window-height="998"
     inkscape:window-x="-8"
     inkscape:window-y="-8"
     inkscape:window-maximized="1"
     inkscape:current-layer="svg1"
     showguides="true">
    <sodipodi:guide
       position="652,427.81457"
       orientation="1,0"
       id="guide1"
       inkscape:locked="false" />
  </sodipodi:namedview>
  <path
     fill="currentColor"
     d="M224 1040v-42h13c44 0 82 -8 82 -67v-122c-165 -9 -264 -100 -264 -278c0 -177 90 -267 264 -276v-104c0 -60 -37 -69 -82 -69h-13v-42h250v42h-13c-44 0 -82 8 -82 67v106c163 9 263 99 263 276c0 178 -91 269 -263 278v120c0 60 37 69 82 69h13v42h-250zM319 308 c-122 10 -167 85 -167 223s45 215 167 226v-449zM379 757c121 -11 166 -88 166 -226c0 -137 -46 -212 -166 -222v448z"
     id="path1" />
  <path
     d="m 526.7351,678 h 136.90728 v 171 c 0,93 -29,148 -104,148 -47,0 -76,-19 -76,-55 0,-16 6,-28 15,-37 16,11 30,16 52,16 33,0 57,-17 57,-72 V 730 H 526.7351 Z"
     style="fill:currentColor"
     id="path1-6"
     sodipodi:nodetypes="ccssscssccc" />
</svg>
