<?xml version="1.0" encoding="UTF-8" standalone="no"?>
<svg
   version="1.1"
   viewBox="-10 0 603 1000"
   id="svg1"
   sodipodi:docname="1DF39.svg"
   inkscape:version="1.4.3 (0d15f75, 2025-12-25)"
   xmlns:inkscape="http://www.inkscape.org/namespaces/inkscape"
   xmlns:sodipodi="http://sodipodi.sourceforge.net/DTD/sodipodi-0.dtd"
   xmlns="http://www.w3.org/2000/svg"
   xmlns:svg="http://www.w3.org/2000/svg">
  <defs
     id="defs1" />
  <sodipodi:namedview
     id="namedview1"
     pagecolor="#ffffff"
     bordercolor="#666666"
     borderopacity="1.0"
     inkscape:showpageshadow="2"
     inkscape:pageopacity="0.0"
     inkscape:pagecheckerboard="0"
     inkscape:deskcolor="#d1d1d1"
     inkscape:zoom="0.3775"
     inkscape:cx="-380.13245"
     inkscape:cy="464.90066"
     inkscape:window-width="1680"
     inkscape:window-height="998"
     inkscape:window-x="-8"
     inkscape:window-y="-8"
     inkscape:window-maximized="1"
     inkscape:current-layer="svg1"
     showguides="true">
    <sodipodi:guide
       position="548,520"
       orientation="1,0"
       id="guide1"
       inkscape:locked="false" />
    <sodipodi:guide
       position="512,253"
       orientation="1,0"
       id="guide2"
       inkscape:locked="false" />
  </sodipodi:namedview>
  <path
     fill="currentColor"
     d="M307 810c-134 0 -199 -78 -199 -209v-227c0 -59 -43 -68 -87 -68h-3v-42h184v328c0 100 44 154 121 154c124 0 153 -103 153 -243c0 -112 -50 -172 -95 -185c0 -39 27 -62 58 -62c69 0 99 113 99 224c0 170 -49 330 -231 330z"
     id="path1" />
  <path
     d="M 502,661.38102 V 849 c 0,93 -29,148 -104,148 -47,0 -76,-19 -76,-55 0,-16 6,-28 15,-37 16,11 30,16 52,16 33,0 57,-17 57,-72 V 724.38102 Z"
     style="fill:#093263;fill-opacity:1"
     id="path1-8"
     sodipodi:nodetypes="cssscsscc" />
</svg>
