<?xml version="1.0" encoding="UTF-8" standalone="no"?>
<svg
   version="1.1"
   viewBox="-10 0 578 1000"
   id="svg1"
   sodipodi:docname="1DF36.svg"
   inkscape:version="1.4.3 (0d15f75, 2025-12-25)"
   xmlns:inkscape="http://www.inkscape.org/namespaces/inkscape"
   xmlns:sodipodi="http://sodipodi.sourceforge.net/DTD/sodipodi-0.dtd"
   xmlns="http://www.w3.org/2000/svg"
   xmlns:svg="http://www.w3.org/2000/svg">
  <defs
     id="defs1" />
  <sodipodi:namedview
     id="namedview1"
     pagecolor="#ffffff"
     bordercolor="#666666"
     borderopacity="1.0"
     inkscape:showpageshadow="2"
     inkscape:pageopacity="0.0"
     inkscape:pagecheckerboard="0"
     inkscape:deskcolor="#d1d1d1"
     inkscape:zoom="0.755"
     inkscape:cx="92.05298"
     inkscape:cy="615.23179"
     inkscape:window-width="1680"
     inkscape:window-height="998"
     inkscape:window-x="-8"
     inkscape:window-y="-8"
     inkscape:window-maximized="1"
     inkscape:current-layer="svg1"
     showguides="true">
    <sodipodi:guide
       position="516,342"
       orientation="1,0"
       id="guide1"
       inkscape:locked="false" />
    <sodipodi:guide
       position="480,248.1839"
       orientation="1,0"
       id="guide2"
       inkscape:locked="false" />
  </sodipodi:namedview>
  <path
     fill="currentColor"
     d="M23 264h284v42h-13c-44 0 -82 8 -82 67v127h73l93 -155c30 -50 55 -81 146 -81h34v42h-10c-30 0 -48 18 -75 60l-98 152c61 11 131 56 131 140c0 89 -62 142 -202 142h-271v-42h4c44 0 81 -9 81 -68v-317c0 -59 -38 -67 -82 -67h-13v-42zM299 548h-87v206h87 c82 0 110 -48 110 -100c0 -57 -29 -106 -110 -106z"
     id="path1" />
  <path
     d="m 470,717 v 132 c 0,93 -29,148 -104,148 -47,0 -76,-19 -76,-55 0,-16 6,-28 15,-37 16,11 30,16 52,16 33,0 57,-17 57,-72 v -69 z"
     style="fill:currentColor"
     id="path1-9"
     sodipodi:nodetypes="cssscsscc" />
</svg>
