<?xml version="1.0" encoding="UTF-8" standalone="no"?>
<svg
   version="1.1"
   viewBox="-10 0 731 1000"
   id="svg1"
   sodipodi:docname="1DF38.svg"
   inkscape:version="1.4.3 (0d15f75, 2025-12-25)"
   xmlns:inkscape="http://www.inkscape.org/namespaces/inkscape"
   xmlns:sodipodi="http://sodipodi.sourceforge.net/DTD/sodipodi-0.dtd"
   xmlns="http://www.w3.org/2000/svg"
   xmlns:svg="http://www.w3.org/2000/svg">
  <defs
     id="defs1" />
  <sodipodi:namedview
     id="namedview1"
     pagecolor="#ffffff"
     bordercolor="#666666"
     borderopacity="1.0"
     inkscape:showpageshadow="2"
     inkscape:pageopacity="0.0"
     inkscape:pagecheckerboard="0"
     inkscape:deskcolor="#d1d1d1"
     inkscape:zoom="0.755"
     inkscape:cx="256.29139"
     inkscape:cy="656.29139"
     inkscape:window-width="1680"
     inkscape:window-height="998"
     inkscape:window-x="-8"
     inkscape:window-y="-8"
     inkscape:window-maximized="1"
     inkscape:current-layer="svg1" />
  <path
     fill="currentColor"
     d="M240 810c-101 0 -145 -40 -145 -155v-334h-76v-40c24 0 56 -9 78 -32c23 -24 36 -57 46 -108h46v128h228c27 -9 58 -14 93 -14c96 0 146 42 146 92c0 36 -26 60 -72 60c0 -67 -27 -106 -86 -106c-68 0 -95 33 -95 80c0 51 35 70 124 106c105 44 150 82 150 166 c0 104 -79 157 -197 157c-44 0 -81 -7 -109 -20c-30 12 -95 20 -131 20zM265 762c24 0 42 -3 63 -9c-9 -14 -13 -30 -13 -49c0 -54 39 -69 63 -69c0 70 27 127 108 127c71 0 110 -37 110 -91c0 -49 -26 -67 -123 -109c-103 -45 -151 -79 -151 -166c0 -29 7 -54 22 -75h-155 v337c0 68 30 104 76 104z"
     id="path1" />
  <path
     d="m 622.08898,771 v 78 c 0,93 -29,148 -104,148 -47,0 -76,-19 -76,-55 0,-16 6,-28 15,-37 16,11 30,16 52,16 33,0 57,-17 57,-72 l 0,-62.58278 z"
     style="fill:#1a5fb4"
     id="path1-2"
     sodipodi:nodetypes="cssscsscc" />
</svg>
