<?xml version="1.0" encoding="UTF-8" standalone="no"?>
<svg
   version="1.1"
   viewBox="-10 0 481 1000"
   id="svg1"
   sodipodi:docname="1DF37.svg"
   inkscape:version="1.4.3 (0d15f75, 2025-12-25)"
   xmlns:inkscape="http://www.inkscape.org/namespaces/inkscape"
   xmlns:sodipodi="http://sodipodi.sourceforge.net/DTD/sodipodi-0.dtd"
   xmlns="http://www.w3.org/2000/svg"
   xmlns:svg="http://www.w3.org/2000/svg">
  <defs
     id="defs1" />
  <sodipodi:namedview
     id="namedview1"
     pagecolor="#ffffff"
     bordercolor="#666666"
     borderopacity="1.0"
     inkscape:showpageshadow="2"
     inkscape:pageopacity="0.0"
     inkscape:pagecheckerboard="0"
     inkscape:deskcolor="#d1d1d1"
     inkscape:zoom="0.755"
     inkscape:cx="415.23179"
     inkscape:cy="849.66887"
     inkscape:window-width="1680"
     inkscape:window-height="998"
     inkscape:window-x="-8"
     inkscape:window-y="-8"
     inkscape:window-maximized="1"
     inkscape:current-layer="svg1"
     showguides="true">
    <sodipodi:guide
       position="254.5,-40"
       orientation="0,-1"
       id="guide1"
       inkscape:locked="false" />
    <sodipodi:guide
       position="362,0"
       orientation="1,0"
       id="guide2"
       inkscape:locked="false" />
    <sodipodi:guide
       position="362,214.69719"
       orientation="0,-1"
       id="guide3"
       inkscape:locked="false" />
    <sodipodi:guide
       position="418,199"
       orientation="1,0"
       id="guide4"
       inkscape:locked="false" />
  </sodipodi:namedview>
  <path
     fill="currentColor"
     d="m 263,845.30281 c -101,0 -145,-40 -145,-155 V 374 c 0,-59 -37,-68 -81,-68 h -4 v -42 h 154 l 19,99 h 5 c 26,-76 76,-109 149,-109 61,0 96,27 96,73 0,42 -26,71 -93,71 0,-55 -14,-78 -53,-78 -75,0 -98,137 -98,214 v 159.30281 c 0,68 30,99 76,99 24,0 43,-3 64,-7 v 44 c -17,8 -57,16 -89,16 z"
     id="path1"
     sodipodi:nodetypes="sssscccccsscssssccs" />
  <path
     d="M 380,785.30281 V 892 c 0,93 -29,148 -104,148 -47,0 -76,-19 -76,-55 0,-16 6,-28 15,-37 16,11 30,16 52,16 33,0 57,-17 57,-72 v -88.31971 l 28,-18.37748 z"
     style="fill:currentColor"
     id="path1-5"
     sodipodi:nodetypes="cssscssccc" />
</svg>
