<?xml version="1.0" encoding="UTF-8" standalone="no"?>
<svg
   version="1.1"
   viewBox="-10 0 578 1000"
   id="svg1"
   sodipodi:docname="1DF35.svg"
   inkscape:version="1.4.3 (0d15f75, 2025-12-25)"
   xmlns:inkscape="http://www.inkscape.org/namespaces/inkscape"
   xmlns:sodipodi="http://sodipodi.sourceforge.net/DTD/sodipodi-0.dtd"
   xmlns="http://www.w3.org/2000/svg"
   xmlns:svg="http://www.w3.org/2000/svg">
  <defs
     id="defs1" />
  <sodipodi:namedview
     id="namedview1"
     pagecolor="#ffffff"
     bordercolor="#666666"
     borderopacity="1.0"
     inkscape:showpageshadow="2"
     inkscape:pageopacity="0.0"
     inkscape:pagecheckerboard="0"
     inkscape:deskcolor="#d1d1d1"
     inkscape:zoom="0.755"
     inkscape:cx="253.64238"
     inkscape:cy="771.52318"
     inkscape:window-width="1680"
     inkscape:window-height="998"
     inkscape:window-x="-8"
     inkscape:window-y="-8"
     inkscape:window-maximized="1"
     inkscape:current-layer="svg1" />
  <path
     fill="currentColor"
     d="M23 800v-42h13c44 0 82 -8 82 -67v-317c0 -59 -37 -68 -81 -68h-4v-42h271c140 0 202 53 202 142c0 84 -70 129 -131 140l98 152c27 42 45 60 75 60h10v42h-34c-91 0 -116 -31 -146 -81l-93 -155h-73v127c0 59 38 67 82 67h13v42h-284zM299 516c81 0 110 -49 110 -106 c0 -52 -28 -100 -110 -100h-87v206h87z"
     id="path1" />
  <path
     d="m 558,758 v 91 c 0,93 -29,148 -104,148 -47,0 -76,-19 -76,-55 0,-16 6,-28 15,-37 16,11 30,16 52,16 33,0 57,-17 57,-72 v -58.76821 z"
     style="fill:currentColor"
     id="path1-6"
     sodipodi:nodetypes="cssscssc" />
</svg>
